<svg width="108" height="108" viewBox="0 0 108 108" fill="none" xmlns="http://www.w3.org/2000/svg">
<path d="M47.109 57.776C47.109 56.6667 47.4717 55.7493 48.197 55.024C48.9223 54.256 49.8397 53.872 50.949 53.872C52.6983 53.872 54.277 53.616 55.685 53.104C57.093 52.5493 58.2023 51.6747 59.013 50.48C59.8663 49.2853 60.293 47.7067 60.293 45.744C60.293 44.2933 59.9303 43.0133 59.205 41.904C58.5223 40.7947 57.5623 39.92 56.325 39.28C55.1303 38.64 53.765 38.32 52.229 38.32C51.0343 38.32 49.9037 38.5333 48.837 38.96C47.813 39.3867 46.8743 39.9627 46.021 40.688C45.3383 41.2853 44.5063 41.7333 43.525 42.032C42.5863 42.288 41.6263 42.0533 40.645 41.328C39.621 40.56 39.0663 39.6427 38.981 38.576C38.8957 37.5093 39.301 36.528 40.197 35.632C41.733 34.0533 43.525 32.8373 45.573 31.984C47.6637 31.088 49.8823 30.64 52.229 30.64C55.173 30.64 57.8183 31.3227 60.165 32.688C62.5543 34.0107 64.453 35.8027 65.861 38.064C67.269 40.3253 67.973 42.8853 67.973 45.744C67.973 47.8773 67.653 49.776 67.013 51.44C66.373 53.0613 65.4557 54.4693 64.261 55.664C63.109 56.816 61.7437 57.7547 60.165 58.48C58.629 59.1627 56.9437 59.6533 55.109 59.952C55.0237 59.9947 54.9383 60.0373 54.853 60.08C54.8103 60.1227 54.789 60.1867 54.789 60.272V62.64C54.789 63.7493 54.4263 64.688 53.701 65.456C52.9757 66.1813 52.0583 66.544 50.949 66.544C49.8397 66.544 48.9223 66.1813 48.197 65.456C47.4717 64.688 47.109 63.7493 47.109 62.64V57.776ZM50.629 78C49.3917 78 48.4317 77.68 47.749 77.04C47.109 76.3573 46.789 75.3973 46.789 74.16V73.072C46.789 71.8347 47.109 70.896 47.749 70.256C48.4317 69.5733 49.3917 69.232 50.629 69.232H51.461C52.6983 69.232 53.637 69.5733 54.277 70.256C54.9597 70.896 55.301 71.8347 55.301 73.072V74.16C55.301 75.3973 54.9597 76.3573 54.277 77.04C53.637 77.68 52.6983 78 51.461 78H50.629Z" fill="white"/>
</svg>
