<svg width="72" height="72" viewBox="0 0 72 72" fill="none" xmlns="http://www.w3.org/2000/svg">
<rect y="10" width="72" height="52" rx="8" fill="#A6A6A6"/>
<path d="M30.8318 38.832C30.8318 38 31.1038 37.312 31.6478 36.768C32.1918 36.192 32.8798 35.904 33.7118 35.904C35.0238 35.904 36.2078 35.712 37.2638 35.328C38.3198 34.912 39.1518 34.256 39.7598 33.36C40.3998 32.464 40.7198 31.28 40.7198 29.808C40.7198 28.72 40.4478 27.76 39.9038 26.928C39.3918 26.096 38.6718 25.44 37.7438 24.96C36.8478 24.48 35.8238 24.24 34.6718 24.24C33.7758 24.24 32.9278 24.4 32.1278 24.72C31.3598 25.04 30.6558 25.472 30.0158 26.016C29.5038 26.464 28.8798 26.8 28.1438 27.024C27.4398 27.216 26.7198 27.04 25.9838 26.496C25.2158 25.92 24.7998 25.232 24.7358 24.432C24.6718 23.632 24.9758 22.896 25.6478 22.224C26.7998 21.04 28.1438 20.128 29.6797 19.488C31.2478 18.816 32.9118 18.48 34.6718 18.48C36.8798 18.48 38.8638 18.992 40.6238 20.016C42.4158 21.008 43.8398 22.352 44.8958 24.048C45.9518 25.744 46.4798 27.664 46.4798 29.808C46.4798 31.408 46.2398 32.832 45.7598 34.08C45.2798 35.296 44.5918 36.352 43.6958 37.248C42.8318 38.112 41.8078 38.816 40.6238 39.36C39.4718 39.872 38.2078 40.24 36.8318 40.464C36.7678 40.496 36.7038 40.528 36.6398 40.56C36.6078 40.592 36.5918 40.64 36.5918 40.704V42.48C36.5918 43.312 36.3198 44.016 35.7758 44.592C35.2318 45.136 34.5438 45.408 33.7118 45.408C32.8798 45.408 32.1918 45.136 31.6478 44.592C31.1038 44.016 30.8318 43.312 30.8318 42.48V38.832ZM33.4718 54C32.5438 54 31.8238 53.76 31.3118 53.28C30.8318 52.768 30.5918 52.048 30.5918 51.12V50.304C30.5918 49.376 30.8318 48.672 31.3118 48.192C31.8238 47.68 32.5438 47.424 33.4718 47.424H34.0958C35.0238 47.424 35.7278 47.68 36.2078 48.192C36.7198 48.672 36.9758 49.376 36.9758 50.304V51.12C36.9758 52.048 36.7198 52.768 36.2078 53.28C35.7278 53.76 35.0238 54 34.0958 54H33.4718Z" fill="white"/>
</svg>
