<svg width="104" height="72" viewBox="0 0 104 72" fill="none" xmlns="http://www.w3.org/2000/svg">
<rect y="10" width="104" height="52" rx="8" fill="#A6A6A6"/>
<path d="M38.7968 42.144C37.9648 42.144 37.2608 41.872 36.6848 41.328C36.1408 40.784 35.8688 40.096 35.8688 39.264C35.8688 38.432 36.1408 37.76 36.6848 37.248C37.2608 36.704 37.9648 36.432 38.7968 36.432H47.1488C47.9808 36.432 48.6688 36.72 49.2128 37.296C49.7888 37.84 50.0768 38.528 50.0768 39.36C50.0768 40.16 49.7888 40.832 49.2128 41.376C48.6688 41.888 47.9808 42.144 47.1488 42.144H38.7968ZM57.828 42.144C56.996 42.144 56.292 41.872 55.716 41.328C55.172 40.784 54.9 40.096 54.9 39.264C54.9 38.432 55.172 37.76 55.716 37.248C56.292 36.704 56.996 36.432 57.828 36.432H66.18C67.012 36.432 67.7 36.72 68.244 37.296C68.82 37.84 69.108 38.528 69.108 39.36C69.108 40.16 68.82 40.832 68.244 41.376C67.7 41.888 67.012 42.144 66.18 42.144H57.828Z" fill="white"/>
</svg>
