<svg width="192" height="96" viewBox="0 0 192 96" fill="none" xmlns="http://www.w3.org/2000/svg">
<path d="M14.016 35.592C14.016 36.904 13.72 38.064 13.128 39.072C12.552 40.064 11.768 40.84 10.776 41.4C9.8 41.96 8.704 42.24 7.488 42.24C6.272 42.24 5.168 41.96 4.176 41.4C3.2 40.84 2.416 40.064 1.824 39.072C1.248 38.064 0.96 36.904 0.96 35.592C0.96 34.28 1.248 33.128 1.824 32.136C2.416 31.128 3.2 30.344 4.176 29.784C5.168 29.208 6.272 28.92 7.488 28.92C8.704 28.92 9.8 29.208 10.776 29.784C11.768 30.344 12.552 31.128 13.128 32.136C13.72 33.128 14.016 34.28 14.016 35.592ZM11.136 35.592C11.136 34.776 10.968 34.072 10.632 33.48C10.312 32.872 9.872 32.4 9.312 32.064C8.768 31.728 8.16 31.56 7.488 31.56C6.816 31.56 6.2 31.728 5.64 32.064C5.096 32.4 4.656 32.872 4.32 33.48C4 34.072 3.84 34.776 3.84 35.592C3.84 36.392 4 37.096 4.32 37.704C4.656 38.296 5.096 38.76 5.64 39.096C6.2 39.432 6.816 39.6 7.488 39.6C8.16 39.6 8.768 39.432 9.312 39.096C9.872 38.76 10.312 38.296 10.632 37.704C10.968 37.096 11.136 36.392 11.136 35.592ZM15.7926 40.008C15.6326 39.784 15.5606 39.496 15.5766 39.144C15.5926 38.792 15.8006 38.488 16.2006 38.232C16.4566 38.072 16.7286 38.008 17.0166 38.04C17.3046 38.056 17.5846 38.2 17.8566 38.472C18.3206 38.936 18.8086 39.296 19.3206 39.552C19.8326 39.808 20.4726 39.936 21.2406 39.936C21.4806 39.92 21.7446 39.888 22.0326 39.84C22.3206 39.776 22.5686 39.648 22.7766 39.456C23.0006 39.248 23.1126 38.936 23.1126 38.52C23.1126 38.168 22.9926 37.888 22.7526 37.68C22.5126 37.472 22.1926 37.296 21.7926 37.152C21.4086 37.008 20.9766 36.872 20.4966 36.744C20.0006 36.6 19.4886 36.44 18.9606 36.264C18.4486 36.088 17.9766 35.864 17.5446 35.592C17.1126 35.304 16.7606 34.928 16.4886 34.464C16.2166 34 16.0806 33.416 16.0806 32.712C16.0806 31.912 16.3046 31.232 16.7526 30.672C17.2006 30.112 17.7766 29.68 18.4806 29.376C19.2006 29.072 19.9526 28.92 20.7366 28.92C21.2326 28.92 21.7526 28.984 22.2966 29.112C22.8406 29.224 23.3606 29.416 23.8566 29.688C24.3526 29.944 24.7686 30.288 25.1046 30.72C25.2806 30.96 25.3846 31.248 25.4166 31.584C25.4486 31.92 25.2966 32.224 24.9606 32.496C24.7206 32.688 24.4406 32.776 24.1206 32.76C23.8006 32.728 23.5366 32.616 23.3286 32.424C23.0566 32.072 22.6886 31.792 22.2246 31.584C21.7766 31.376 21.2566 31.272 20.6646 31.272C20.4246 31.272 20.1606 31.304 19.8726 31.368C19.6006 31.416 19.3606 31.536 19.1526 31.728C18.9446 31.904 18.8406 32.192 18.8406 32.592C18.8406 32.96 18.9606 33.256 19.2006 33.48C19.4406 33.688 19.7606 33.864 20.1606 34.008C20.5766 34.136 21.0166 34.264 21.4806 34.392C21.9606 34.52 22.4486 34.672 22.9446 34.848C23.4406 35.024 23.8966 35.256 24.3126 35.544C24.7286 35.832 25.0646 36.208 25.3206 36.672C25.5766 37.12 25.7046 37.696 25.7046 38.4C25.7046 39.216 25.4646 39.912 24.9846 40.488C24.5046 41.064 23.9046 41.504 23.1846 41.808C22.4646 42.096 21.7286 42.24 20.9766 42.24C20.0326 42.24 19.0886 42.08 18.1446 41.76C17.2006 41.424 16.4166 40.84 15.7926 40.008ZM37.6427 29.16C38.0587 29.16 38.4027 29.304 38.6747 29.592C38.9467 29.864 39.0827 30.208 39.0827 30.624V36.72C39.0827 38.416 38.6107 39.76 37.6667 40.752C36.7227 41.744 35.3627 42.24 33.5867 42.24C31.8107 42.24 30.4507 41.744 29.5067 40.752C28.5787 39.76 28.1147 38.416 28.1147 36.72V30.624C28.1147 30.208 28.2507 29.864 28.5227 29.592C28.7947 29.304 29.1387 29.16 29.5547 29.16C29.9707 29.16 30.3147 29.304 30.5867 29.592C30.8587 29.864 30.9947 30.208 30.9947 30.624V36.72C30.9947 37.696 31.2107 38.424 31.6427 38.904C32.0747 39.368 32.7227 39.6 33.5867 39.6C34.4667 39.6 35.1227 39.368 35.5547 38.904C35.9867 38.424 36.2027 37.696 36.2027 36.72V30.624C36.2027 30.208 36.3387 29.864 36.6107 29.592C36.8827 29.304 37.2267 29.16 37.6427 29.16ZM43.8566 36.696C43.3126 36.696 43.0166 36.392 42.9686 35.784L42.2726 26.952C42.2406 26.456 42.3686 26.04 42.6566 25.704C42.9606 25.368 43.3526 25.2 43.8326 25.2C44.3126 25.2 44.7046 25.368 45.0086 25.704C45.3126 26.04 45.4406 26.456 45.3926 26.952L44.7206 35.784C44.6726 36.392 44.3846 36.696 43.8566 36.696ZM43.6886 42C43.2246 42 42.8646 41.88 42.6086 41.64C42.3686 41.384 42.2486 41.024 42.2486 40.56V40.152C42.2486 39.688 42.3686 39.336 42.6086 39.096C42.8646 38.84 43.2246 38.712 43.6886 38.712H44.0006C44.4646 38.712 44.8166 38.84 45.0566 39.096C45.3126 39.336 45.4406 39.688 45.4406 40.152V40.56C45.4406 41.024 45.3126 41.384 45.0566 41.64C44.8166 41.88 44.4646 42 44.0006 42H43.6886ZM54.5816 40.008C54.4216 39.784 54.3496 39.496 54.3656 39.144C54.3816 38.792 54.5896 38.488 54.9896 38.232C55.2456 38.072 55.5176 38.008 55.8056 38.04C56.0936 38.056 56.3736 38.2 56.6456 38.472C57.1096 38.936 57.5976 39.296 58.1096 39.552C58.6216 39.808 59.2616 39.936 60.0296 39.936C60.2696 39.92 60.5336 39.888 60.8216 39.84C61.1096 39.776 61.3576 39.648 61.5656 39.456C61.7896 39.248 61.9016 38.936 61.9016 38.52C61.9016 38.168 61.7816 37.888 61.5416 37.68C61.3016 37.472 60.9816 37.296 60.5816 37.152C60.1976 37.008 59.7656 36.872 59.2856 36.744C58.7896 36.6 58.2776 36.44 57.7496 36.264C57.2376 36.088 56.7656 35.864 56.3336 35.592C55.9016 35.304 55.5496 34.928 55.2776 34.464C55.0056 34 54.8696 33.416 54.8696 32.712C54.8696 31.912 55.0936 31.232 55.5416 30.672C55.9896 30.112 56.5656 29.68 57.2696 29.376C57.9896 29.072 58.7416 28.92 59.5256 28.92C60.0216 28.92 60.5416 28.984 61.0856 29.112C61.6296 29.224 62.1496 29.416 62.6456 29.688C63.1416 29.944 63.5576 30.288 63.8936 30.72C64.0696 30.96 64.1736 31.248 64.2056 31.584C64.2376 31.92 64.0856 32.224 63.7496 32.496C63.5096 32.688 63.2296 32.776 62.9096 32.76C62.5896 32.728 62.3256 32.616 62.1176 32.424C61.8456 32.072 61.4776 31.792 61.0136 31.584C60.5656 31.376 60.0456 31.272 59.4536 31.272C59.2136 31.272 58.9496 31.304 58.6616 31.368C58.3896 31.416 58.1496 31.536 57.9416 31.728C57.7336 31.904 57.6296 32.192 57.6296 32.592C57.6296 32.96 57.7496 33.256 57.9896 33.48C58.2296 33.688 58.5496 33.864 58.9496 34.008C59.3656 34.136 59.8056 34.264 60.2696 34.392C60.7496 34.52 61.2376 34.672 61.7336 34.848C62.2296 35.024 62.6856 35.256 63.1016 35.544C63.5176 35.832 63.8536 36.208 64.1096 36.672C64.3656 37.12 64.4936 37.696 64.4936 38.4C64.4936 39.216 64.2536 39.912 63.7736 40.488C63.2936 41.064 62.6936 41.504 61.9736 41.808C61.2536 42.096 60.5176 42.24 59.7656 42.24C58.8216 42.24 57.8776 42.08 56.9336 41.76C55.9896 41.424 55.2056 40.84 54.5816 40.008ZM72.6158 28.92C73.5278 28.92 74.3198 29.016 74.9918 29.208C75.6798 29.4 76.2078 29.672 76.5758 30.024C76.9598 30.36 77.1518 30.768 77.1518 31.248C77.1518 31.568 77.0558 31.872 76.8638 32.16C76.6718 32.432 76.3918 32.568 76.0238 32.568C75.7678 32.568 75.5518 32.536 75.3758 32.472C75.2158 32.392 75.0718 32.296 74.9438 32.184C74.8158 32.072 74.6638 31.968 74.4878 31.872C74.3278 31.776 74.0798 31.704 73.7438 31.656C73.4238 31.592 73.1838 31.56 73.0238 31.56C72.2078 31.56 71.5118 31.736 70.9358 32.088C70.3758 32.44 69.9438 32.92 69.6398 33.528C69.3358 34.12 69.1838 34.808 69.1838 35.592C69.1838 36.36 69.3358 37.048 69.6398 37.656C69.9598 38.248 70.3918 38.72 70.9358 39.072C71.4958 39.424 72.1358 39.6 72.8558 39.6C73.2558 39.6 73.5998 39.576 73.8878 39.528C74.1758 39.48 74.4158 39.408 74.6078 39.312C74.8318 39.184 75.0318 39.048 75.2078 38.904C75.3838 38.76 75.6478 38.688 75.9998 38.688C76.4158 38.688 76.7358 38.824 76.9598 39.096C77.1838 39.352 77.2958 39.672 77.2958 40.056C77.2958 40.456 77.0718 40.824 76.6238 41.16C76.1758 41.48 75.5838 41.744 74.8478 41.952C74.1278 42.144 73.3438 42.24 72.4958 42.24C71.2318 42.24 70.1358 41.952 69.2078 41.376C68.2798 40.784 67.5598 39.984 67.0478 38.976C66.5518 37.968 66.3038 36.84 66.3038 35.592C66.3038 34.28 66.5678 33.128 67.0958 32.136C67.6398 31.128 68.3838 30.344 69.3278 29.784C70.2878 29.208 71.3838 28.92 72.6158 28.92ZM91.8285 35.592C91.8285 36.904 91.5325 38.064 90.9405 39.072C90.3645 40.064 89.5805 40.84 88.5885 41.4C87.6125 41.96 86.5165 42.24 85.3005 42.24C84.0845 42.24 82.9805 41.96 81.9885 41.4C81.0125 40.84 80.2285 40.064 79.6365 39.072C79.0605 38.064 78.7725 36.904 78.7725 35.592C78.7725 34.28 79.0605 33.128 79.6365 32.136C80.2285 31.128 81.0125 30.344 81.9885 29.784C82.9805 29.208 84.0845 28.92 85.3005 28.92C86.5165 28.92 87.6125 29.208 88.5885 29.784C89.5805 30.344 90.3645 31.128 90.9405 32.136C91.5325 33.128 91.8285 34.28 91.8285 35.592ZM88.9485 35.592C88.9485 34.776 88.7805 34.072 88.4445 33.48C88.1245 32.872 87.6845 32.4 87.1245 32.064C86.5805 31.728 85.9725 31.56 85.3005 31.56C84.6285 31.56 84.0125 31.728 83.4525 32.064C82.9085 32.4 82.4685 32.872 82.1325 33.48C81.8125 34.072 81.6525 34.776 81.6525 35.592C81.6525 36.392 81.8125 37.096 82.1325 37.704C82.4685 38.296 82.9085 38.76 83.4525 39.096C84.0125 39.432 84.6285 39.6 85.3005 39.6C85.9725 39.6 86.5805 39.432 87.1245 39.096C87.6845 38.76 88.1245 38.296 88.4445 37.704C88.7805 37.096 88.9485 36.392 88.9485 35.592ZM95.7891 42C95.3731 42 95.0291 41.864 94.7571 41.592C94.4851 41.304 94.3491 40.952 94.3491 40.536V30.624C94.3491 30.208 94.4851 29.864 94.7571 29.592C95.0291 29.304 95.3731 29.16 95.7891 29.16C96.2051 29.16 96.5491 29.304 96.8211 29.592C97.0931 29.864 97.2291 30.208 97.2291 30.624V32.88L97.0611 31.272C97.2371 30.888 97.4611 30.552 97.7331 30.264C98.0211 29.96 98.3411 29.712 98.6931 29.52C99.0451 29.312 99.4211 29.16 99.8211 29.064C100.221 28.968 100.621 28.92 101.021 28.92C101.501 28.92 101.901 29.056 102.221 29.328C102.557 29.6 102.725 29.92 102.725 30.288C102.725 30.816 102.589 31.2 102.317 31.44C102.045 31.664 101.749 31.776 101.429 31.776C101.125 31.776 100.845 31.72 100.589 31.608C100.349 31.496 100.069 31.44 99.7491 31.44C99.4611 31.44 99.1651 31.512 98.8611 31.656C98.5731 31.784 98.3011 31.992 98.0451 32.28C97.8051 32.568 97.6051 32.928 97.4451 33.36C97.3011 33.776 97.2291 34.272 97.2291 34.848V40.536C97.2291 40.952 97.0931 41.304 96.8211 41.592C96.5491 41.864 96.2051 42 95.7891 42ZM110.264 42.24C108.904 42.24 107.72 41.96 106.712 41.4C105.72 40.824 104.952 40.048 104.408 39.072C103.88 38.096 103.616 36.992 103.616 35.76C103.616 34.32 103.904 33.096 104.48 32.088C105.072 31.064 105.84 30.28 106.784 29.736C107.728 29.192 108.728 28.92 109.784 28.92C110.6 28.92 111.368 29.088 112.088 29.424C112.824 29.76 113.472 30.224 114.032 30.816C114.592 31.392 115.032 32.064 115.352 32.832C115.688 33.6 115.856 34.416 115.856 35.28C115.84 35.664 115.688 35.976 115.4 36.216C115.112 36.456 114.776 36.576 114.392 36.576H105.224L104.504 34.176H113.312L112.784 34.656V34.008C112.752 33.544 112.584 33.128 112.28 32.76C111.992 32.392 111.624 32.104 111.176 31.896C110.744 31.672 110.28 31.56 109.784 31.56C109.304 31.56 108.856 31.624 108.44 31.752C108.024 31.88 107.664 32.096 107.36 32.4C107.056 32.704 106.816 33.112 106.64 33.624C106.464 34.136 106.376 34.784 106.376 35.568C106.376 36.432 106.552 37.168 106.904 37.776C107.272 38.368 107.736 38.824 108.296 39.144C108.872 39.448 109.48 39.6 110.12 39.6C110.712 39.6 111.184 39.552 111.536 39.456C111.888 39.36 112.168 39.248 112.376 39.12C112.6 38.976 112.8 38.856 112.976 38.76C113.264 38.616 113.536 38.544 113.792 38.544C114.144 38.544 114.432 38.664 114.656 38.904C114.896 39.144 115.016 39.424 115.016 39.744C115.016 40.176 114.792 40.568 114.344 40.92C113.928 41.272 113.344 41.584 112.592 41.856C111.84 42.112 111.064 42.24 110.264 42.24ZM7.272 58.92C8.184 58.92 8.976 59.016 9.648 59.208C10.336 59.4 10.864 59.672 11.232 60.024C11.616 60.36 11.808 60.768 11.808 61.248C11.808 61.568 11.712 61.872 11.52 62.16C11.328 62.432 11.048 62.568 10.68 62.568C10.424 62.568 10.208 62.536 10.032 62.472C9.872 62.392 9.728 62.296 9.6 62.184C9.472 62.072 9.32 61.968 9.144 61.872C8.984 61.776 8.736 61.704 8.4 61.656C8.08 61.592 7.84 61.56 7.68 61.56C6.864 61.56 6.168 61.736 5.592 62.088C5.032 62.44 4.6 62.92 4.296 63.528C3.992 64.12 3.84 64.808 3.84 65.592C3.84 66.36 3.992 67.048 4.296 67.656C4.616 68.248 5.048 68.72 5.592 69.072C6.152 69.424 6.792 69.6 7.512 69.6C7.912 69.6 8.256 69.576 8.544 69.528C8.832 69.48 9.072 69.408 9.264 69.312C9.488 69.184 9.688 69.048 9.864 68.904C10.04 68.76 10.304 68.688 10.656 68.688C11.072 68.688 11.392 68.824 11.616 69.096C11.84 69.352 11.952 69.672 11.952 70.056C11.952 70.456 11.728 70.824 11.28 71.16C10.832 71.48 10.24 71.744 9.504 71.952C8.784 72.144 8 72.24 7.152 72.24C5.888 72.24 4.792 71.952 3.864 71.376C2.936 70.784 2.216 69.984 1.704 68.976C1.208 67.968 0.96 66.84 0.96 65.592C0.96 64.28 1.224 63.128 1.752 62.136C2.296 61.128 3.04 60.344 3.984 59.784C4.944 59.208 6.04 58.92 7.272 58.92ZM26.4848 65.592C26.4848 66.904 26.1888 68.064 25.5968 69.072C25.0208 70.064 24.2368 70.84 23.2448 71.4C22.2688 71.96 21.1728 72.24 19.9568 72.24C18.7408 72.24 17.6368 71.96 16.6448 71.4C15.6688 70.84 14.8848 70.064 14.2928 69.072C13.7168 68.064 13.4288 66.904 13.4288 65.592C13.4288 64.28 13.7168 63.128 14.2928 62.136C14.8848 61.128 15.6688 60.344 16.6448 59.784C17.6368 59.208 18.7408 58.92 19.9568 58.92C21.1728 58.92 22.2688 59.208 23.2448 59.784C24.2368 60.344 25.0208 61.128 25.5968 62.136C26.1888 63.128 26.4848 64.28 26.4848 65.592ZM23.6048 65.592C23.6048 64.776 23.4368 64.072 23.1008 63.48C22.7808 62.872 22.3408 62.4 21.7808 62.064C21.2368 61.728 20.6288 61.56 19.9568 61.56C19.2848 61.56 18.6688 61.728 18.1088 62.064C17.5648 62.4 17.1248 62.872 16.7888 63.48C16.4688 64.072 16.3088 64.776 16.3088 65.592C16.3088 66.392 16.4688 67.096 16.7888 67.704C17.1248 68.296 17.5648 68.76 18.1088 69.096C18.6688 69.432 19.2848 69.6 19.9568 69.6C20.6288 69.6 21.2368 69.432 21.7808 69.096C22.3408 68.76 22.7808 68.296 23.1008 67.704C23.4368 67.096 23.6048 66.392 23.6048 65.592ZM29.4641 59.16C29.7681 59.16 30.0481 59.24 30.3041 59.4C30.5601 59.544 30.7521 59.768 30.8801 60.072L34.4081 68.136L33.8801 68.376L37.4801 60.096C37.7521 59.456 38.1761 59.152 38.7521 59.184C39.1521 59.184 39.4721 59.312 39.7121 59.568C39.9681 59.808 40.0961 60.112 40.0961 60.48C40.0961 60.592 40.0721 60.712 40.0241 60.84C39.9921 60.968 39.9521 61.088 39.9041 61.2L35.4161 71.088C35.1601 71.664 34.7521 71.968 34.1921 72C33.8881 72.048 33.5921 71.992 33.3041 71.832C33.0321 71.672 32.8241 71.424 32.6801 71.088L28.2161 61.2C28.1841 61.12 28.1441 61.016 28.0961 60.888C28.0641 60.76 28.0481 60.608 28.0481 60.432C28.0481 60.144 28.1761 59.864 28.4321 59.592C28.6881 59.304 29.0321 59.16 29.4641 59.16ZM48.2955 72.24C46.9355 72.24 45.7515 71.96 44.7435 71.4C43.7515 70.824 42.9835 70.048 42.4395 69.072C41.9115 68.096 41.6475 66.992 41.6475 65.76C41.6475 64.32 41.9355 63.096 42.5115 62.088C43.1035 61.064 43.8715 60.28 44.8155 59.736C45.7595 59.192 46.7595 58.92 47.8155 58.92C48.6315 58.92 49.3995 59.088 50.1195 59.424C50.8555 59.76 51.5035 60.224 52.0635 60.816C52.6235 61.392 53.0635 62.064 53.3835 62.832C53.7195 63.6 53.8875 64.416 53.8875 65.28C53.8715 65.664 53.7195 65.976 53.4315 66.216C53.1435 66.456 52.8075 66.576 52.4235 66.576H43.2555L42.5355 64.176H51.3435L50.8155 64.656V64.008C50.7835 63.544 50.6155 63.128 50.3115 62.76C50.0235 62.392 49.6555 62.104 49.2075 61.896C48.7755 61.672 48.3115 61.56 47.8155 61.56C47.3355 61.56 46.8875 61.624 46.4715 61.752C46.0555 61.88 45.6955 62.096 45.3915 62.4C45.0875 62.704 44.8475 63.112 44.6715 63.624C44.4955 64.136 44.4075 64.784 44.4075 65.568C44.4075 66.432 44.5835 67.168 44.9355 67.776C45.3035 68.368 45.7675 68.824 46.3275 69.144C46.9035 69.448 47.5115 69.6 48.1515 69.6C48.7435 69.6 49.2155 69.552 49.5675 69.456C49.9195 69.36 50.1995 69.248 50.4075 69.12C50.6315 68.976 50.8315 68.856 51.0075 68.76C51.2955 68.616 51.5675 68.544 51.8235 68.544C52.1755 68.544 52.4635 68.664 52.6875 68.904C52.9275 69.144 53.0475 69.424 53.0475 69.744C53.0475 70.176 52.8235 70.568 52.3755 70.92C51.9595 71.272 51.3755 71.584 50.6235 71.856C49.8715 72.112 49.0955 72.24 48.2955 72.24ZM57.8438 72C57.4278 72 57.0838 71.864 56.8118 71.592C56.5398 71.304 56.4038 70.952 56.4038 70.536V60.624C56.4038 60.208 56.5398 59.864 56.8118 59.592C57.0838 59.304 57.4278 59.16 57.8438 59.16C58.2598 59.16 58.6038 59.304 58.8758 59.592C59.1478 59.864 59.2838 60.208 59.2838 60.624V62.88L59.1158 61.272C59.2918 60.888 59.5158 60.552 59.7878 60.264C60.0758 59.96 60.3958 59.712 60.7478 59.52C61.0998 59.312 61.4758 59.16 61.8758 59.064C62.2758 58.968 62.6758 58.92 63.0758 58.92C63.5558 58.92 63.9558 59.056 64.2758 59.328C64.6118 59.6 64.7798 59.92 64.7798 60.288C64.7798 60.816 64.6438 61.2 64.3718 61.44C64.0998 61.664 63.8038 61.776 63.4838 61.776C63.1798 61.776 62.8998 61.72 62.6438 61.608C62.4038 61.496 62.1238 61.44 61.8038 61.44C61.5158 61.44 61.2198 61.512 60.9158 61.656C60.6278 61.784 60.3558 61.992 60.0998 62.28C59.8598 62.568 59.6598 62.928 59.4998 63.36C59.3558 63.776 59.2838 64.272 59.2838 64.848V70.536C59.2838 70.952 59.1478 71.304 58.8758 71.592C58.6038 71.864 58.2598 72 57.8438 72ZM78.8646 58.92C79.5366 58.92 80.1526 59.024 80.7126 59.232C81.2726 59.44 81.7526 59.704 82.1526 60.024C82.5686 60.344 82.8886 60.672 83.1126 61.008C83.3526 61.328 83.4726 61.6 83.4726 61.824L82.8486 62.136V60.384C82.8486 59.968 82.9846 59.624 83.2566 59.352C83.5286 59.064 83.8726 58.92 84.2886 58.92C84.7046 58.92 85.0486 59.056 85.3206 59.328C85.5926 59.6 85.7286 59.952 85.7286 60.384V71.064C85.7286 72.456 85.4246 73.568 84.8166 74.4C84.2246 75.248 83.4406 75.856 82.4646 76.224C81.4886 76.608 80.4406 76.8 79.3206 76.8C79.0006 76.8 78.5846 76.76 78.0726 76.68C77.5606 76.6 77.0726 76.504 76.6086 76.392C76.1446 76.28 75.7926 76.176 75.5526 76.08C75.0726 75.872 74.7366 75.608 74.5446 75.288C74.3686 74.984 74.3366 74.656 74.4486 74.304C74.5926 73.84 74.8246 73.52 75.1446 73.344C75.4646 73.184 75.8006 73.168 76.1526 73.296C76.3126 73.344 76.5766 73.44 76.9446 73.584C77.3126 73.728 77.7126 73.856 78.1446 73.968C78.5926 74.096 78.9846 74.16 79.3206 74.16C80.5206 74.16 81.4086 73.92 81.9846 73.44C82.5606 72.96 82.8486 72.296 82.8486 71.448V69.36L83.1366 69.576C83.1366 69.784 83.0246 70.04 82.8006 70.344C82.5926 70.632 82.2966 70.92 81.9126 71.208C81.5446 71.496 81.1046 71.744 80.5926 71.952C80.0806 72.144 79.5366 72.24 78.9606 72.24C77.8246 72.24 76.8006 71.96 75.8886 71.4C74.9766 70.824 74.2566 70.04 73.7286 69.048C73.2006 68.04 72.9366 66.888 72.9366 65.592C72.9366 64.28 73.2006 63.128 73.7286 62.136C74.2566 61.128 74.9686 60.344 75.8646 59.784C76.7606 59.208 77.7606 58.92 78.8646 58.92ZM79.3206 61.56C78.6006 61.56 77.9686 61.736 77.4246 62.088C76.8806 62.44 76.4566 62.92 76.1526 63.528C75.8486 64.136 75.6966 64.824 75.6966 65.592C75.6966 66.344 75.8486 67.024 76.1526 67.632C76.4566 68.24 76.8806 68.72 77.4246 69.072C77.9686 69.424 78.6006 69.6 79.3206 69.6C80.0566 69.6 80.6966 69.424 81.2406 69.072C81.7846 68.72 82.2086 68.24 82.5126 67.632C82.8166 67.024 82.9686 66.344 82.9686 65.592C82.9686 64.824 82.8166 64.136 82.5126 63.528C82.2086 62.92 81.7846 62.44 81.2406 62.088C80.6966 61.736 80.0566 61.56 79.3206 61.56ZM94.4205 72.24C93.0605 72.24 91.8765 71.96 90.8685 71.4C89.8765 70.824 89.1085 70.048 88.5645 69.072C88.0365 68.096 87.7725 66.992 87.7725 65.76C87.7725 64.32 88.0605 63.096 88.6365 62.088C89.2285 61.064 89.9965 60.28 90.9405 59.736C91.8845 59.192 92.8845 58.92 93.9405 58.92C94.7565 58.92 95.5245 59.088 96.2445 59.424C96.9805 59.76 97.6285 60.224 98.1885 60.816C98.7485 61.392 99.1885 62.064 99.5085 62.832C99.8445 63.6 100.013 64.416 100.013 65.28C99.9965 65.664 99.8445 65.976 99.5565 66.216C99.2685 66.456 98.9325 66.576 98.5485 66.576H89.3805L88.6605 64.176H97.4685L96.9405 64.656V64.008C96.9085 63.544 96.7405 63.128 96.4365 62.76C96.1485 62.392 95.7805 62.104 95.3325 61.896C94.9005 61.672 94.4365 61.56 93.9405 61.56C93.4605 61.56 93.0125 61.624 92.5965 61.752C92.1805 61.88 91.8205 62.096 91.5165 62.4C91.2125 62.704 90.9725 63.112 90.7965 63.624C90.6205 64.136 90.5325 64.784 90.5325 65.568C90.5325 66.432 90.7085 67.168 91.0605 67.776C91.4285 68.368 91.8925 68.824 92.4525 69.144C93.0285 69.448 93.6365 69.6 94.2765 69.6C94.8685 69.6 95.3405 69.552 95.6925 69.456C96.0445 69.36 96.3245 69.248 96.5325 69.12C96.7565 68.976 96.9565 68.856 97.1325 68.76C97.4205 68.616 97.6925 68.544 97.9485 68.544C98.3005 68.544 98.5885 68.664 98.8125 68.904C99.0525 69.144 99.1725 69.424 99.1725 69.744C99.1725 70.176 98.9485 70.568 98.5005 70.92C98.0845 71.272 97.5005 71.584 96.7485 71.856C95.9965 72.112 95.2205 72.24 94.4205 72.24ZM109.393 58.92C110.577 58.92 111.473 59.168 112.081 59.664C112.705 60.16 113.129 60.824 113.353 61.656C113.593 62.472 113.713 63.384 113.713 64.392V70.536C113.713 70.952 113.577 71.304 113.305 71.592C113.033 71.864 112.689 72 112.273 72C111.857 72 111.513 71.864 111.241 71.592C110.969 71.304 110.833 70.952 110.833 70.536V64.392C110.833 63.864 110.761 63.392 110.617 62.976C110.489 62.544 110.249 62.2 109.897 61.944C109.545 61.688 109.041 61.56 108.385 61.56C107.745 61.56 107.201 61.688 106.753 61.944C106.321 62.2 105.985 62.544 105.745 62.976C105.521 63.392 105.409 63.864 105.409 64.392V70.536C105.409 70.952 105.273 71.304 105.001 71.592C104.729 71.864 104.385 72 103.969 72C103.553 72 103.209 71.864 102.937 71.592C102.665 71.304 102.529 70.952 102.529 70.536V60.624C102.529 60.208 102.665 59.864 102.937 59.592C103.209 59.304 103.553 59.16 103.969 59.16C104.385 59.16 104.729 59.304 105.001 59.592C105.273 59.864 105.409 60.208 105.409 60.624V61.656L105.049 61.584C105.193 61.312 105.401 61.024 105.673 60.72C105.945 60.4 106.265 60.104 106.633 59.832C107.001 59.56 107.417 59.344 107.881 59.184C108.345 59.008 108.849 58.92 109.393 58.92ZM122.874 72.24C121.514 72.24 120.33 71.96 119.322 71.4C118.33 70.824 117.562 70.048 117.018 69.072C116.49 68.096 116.226 66.992 116.226 65.76C116.226 64.32 116.514 63.096 117.09 62.088C117.682 61.064 118.45 60.28 119.394 59.736C120.338 59.192 121.338 58.92 122.394 58.92C123.21 58.92 123.978 59.088 124.698 59.424C125.434 59.76 126.082 60.224 126.642 60.816C127.202 61.392 127.642 62.064 127.962 62.832C128.298 63.6 128.466 64.416 128.466 65.28C128.45 65.664 128.298 65.976 128.01 66.216C127.722 66.456 127.386 66.576 127.002 66.576H117.834L117.114 64.176H125.922L125.394 64.656V64.008C125.362 63.544 125.194 63.128 124.89 62.76C124.602 62.392 124.234 62.104 123.786 61.896C123.354 61.672 122.89 61.56 122.394 61.56C121.914 61.56 121.466 61.624 121.05 61.752C120.634 61.88 120.274 62.096 119.97 62.4C119.666 62.704 119.426 63.112 119.25 63.624C119.074 64.136 118.986 64.784 118.986 65.568C118.986 66.432 119.162 67.168 119.514 67.776C119.882 68.368 120.346 68.824 120.906 69.144C121.482 69.448 122.09 69.6 122.73 69.6C123.322 69.6 123.794 69.552 124.146 69.456C124.498 69.36 124.778 69.248 124.986 69.12C125.21 68.976 125.41 68.856 125.586 68.76C125.874 68.616 126.146 68.544 126.402 68.544C126.754 68.544 127.042 68.664 127.266 68.904C127.506 69.144 127.626 69.424 127.626 69.744C127.626 70.176 127.402 70.568 126.954 70.92C126.538 71.272 125.954 71.584 125.202 71.856C124.45 72.112 123.674 72.24 122.874 72.24ZM132.422 72C132.006 72 131.662 71.864 131.39 71.592C131.118 71.304 130.982 70.952 130.982 70.536V60.624C130.982 60.208 131.118 59.864 131.39 59.592C131.662 59.304 132.006 59.16 132.422 59.16C132.838 59.16 133.182 59.304 133.454 59.592C133.726 59.864 133.862 60.208 133.862 60.624V62.88L133.694 61.272C133.87 60.888 134.094 60.552 134.366 60.264C134.654 59.96 134.974 59.712 135.326 59.52C135.678 59.312 136.054 59.16 136.454 59.064C136.854 58.968 137.254 58.92 137.654 58.92C138.134 58.92 138.534 59.056 138.854 59.328C139.19 59.6 139.358 59.92 139.358 60.288C139.358 60.816 139.222 61.2 138.95 61.44C138.678 61.664 138.382 61.776 138.062 61.776C137.758 61.776 137.478 61.72 137.222 61.608C136.982 61.496 136.702 61.44 136.382 61.44C136.094 61.44 135.798 61.512 135.494 61.656C135.206 61.784 134.934 61.992 134.678 62.28C134.438 62.568 134.238 62.928 134.078 63.36C133.934 63.776 133.862 64.272 133.862 64.848V70.536C133.862 70.952 133.726 71.304 133.454 71.592C133.182 71.864 132.838 72 132.422 72ZM151.619 58.92C152.035 58.92 152.379 59.056 152.651 59.328C152.923 59.6 153.059 59.952 153.059 60.384V70.536C153.059 70.952 152.923 71.304 152.651 71.592C152.379 71.864 152.035 72 151.619 72C151.203 72 150.859 71.864 150.587 71.592C150.315 71.304 150.179 70.952 150.179 70.536V69.36L150.707 69.576C150.707 69.784 150.595 70.04 150.371 70.344C150.147 70.632 149.843 70.92 149.459 71.208C149.075 71.496 148.619 71.744 148.091 71.952C147.579 72.144 147.019 72.24 146.411 72.24C145.307 72.24 144.307 71.96 143.411 71.4C142.515 70.824 141.803 70.04 141.275 69.048C140.763 68.04 140.507 66.888 140.507 65.592C140.507 64.28 140.763 63.128 141.275 62.136C141.803 61.128 142.507 60.344 143.387 59.784C144.267 59.208 145.243 58.92 146.315 58.92C147.003 58.92 147.635 59.024 148.211 59.232C148.787 59.44 149.283 59.704 149.699 60.024C150.131 60.344 150.459 60.672 150.683 61.008C150.923 61.328 151.043 61.6 151.043 61.824L150.179 62.136V60.384C150.179 59.968 150.315 59.624 150.587 59.352C150.859 59.064 151.203 58.92 151.619 58.92ZM146.771 69.6C147.475 69.6 148.091 69.424 148.619 69.072C149.147 68.72 149.555 68.24 149.843 67.632C150.147 67.024 150.299 66.344 150.299 65.592C150.299 64.824 150.147 64.136 149.843 63.528C149.555 62.92 149.147 62.44 148.619 62.088C148.091 61.736 147.475 61.56 146.771 61.56C146.083 61.56 145.475 61.736 144.947 62.088C144.419 62.44 144.003 62.92 143.699 63.528C143.411 64.136 143.267 64.824 143.267 65.592C143.267 66.344 143.411 67.024 143.699 67.632C144.003 68.24 144.419 68.72 144.947 69.072C145.475 69.424 146.083 69.6 146.771 69.6ZM156.321 59.4H162.009C162.393 59.4 162.713 59.528 162.969 59.784C163.225 60.04 163.353 60.36 163.353 60.744C163.353 61.112 163.225 61.424 162.969 61.68C162.713 61.92 162.393 62.04 162.009 62.04H156.321C155.937 62.04 155.617 61.912 155.361 61.656C155.105 61.4 154.977 61.08 154.977 60.696C154.977 60.328 155.105 60.024 155.361 59.784C155.617 59.528 155.937 59.4 156.321 59.4ZM158.889 56.4C159.305 56.4 159.641 56.544 159.897 56.832C160.169 57.104 160.305 57.448 160.305 57.864V68.544C160.305 68.768 160.345 68.952 160.425 69.096C160.521 69.24 160.641 69.344 160.785 69.408C160.945 69.472 161.113 69.504 161.289 69.504C161.481 69.504 161.657 69.472 161.817 69.408C161.977 69.328 162.161 69.288 162.369 69.288C162.593 69.288 162.793 69.392 162.969 69.6C163.161 69.808 163.257 70.096 163.257 70.464C163.257 70.912 163.009 71.28 162.513 71.568C162.033 71.856 161.513 72 160.953 72C160.617 72 160.241 71.976 159.825 71.928C159.425 71.864 159.041 71.728 158.673 71.52C158.321 71.296 158.025 70.96 157.785 70.512C157.545 70.064 157.425 69.448 157.425 68.664V57.864C157.425 57.448 157.561 57.104 157.833 56.832C158.121 56.544 158.473 56.4 158.889 56.4ZM178.336 65.592C178.336 66.904 178.04 68.064 177.448 69.072C176.872 70.064 176.088 70.84 175.096 71.4C174.12 71.96 173.024 72.24 171.808 72.24C170.592 72.24 169.488 71.96 168.496 71.4C167.52 70.84 166.736 70.064 166.144 69.072C165.568 68.064 165.28 66.904 165.28 65.592C165.28 64.28 165.568 63.128 166.144 62.136C166.736 61.128 167.52 60.344 168.496 59.784C169.488 59.208 170.592 58.92 171.808 58.92C173.024 58.92 174.12 59.208 175.096 59.784C176.088 60.344 176.872 61.128 177.448 62.136C178.04 63.128 178.336 64.28 178.336 65.592ZM175.456 65.592C175.456 64.776 175.288 64.072 174.952 63.48C174.632 62.872 174.192 62.4 173.632 62.064C173.088 61.728 172.48 61.56 171.808 61.56C171.136 61.56 170.52 61.728 169.96 62.064C169.416 62.4 168.976 62.872 168.64 63.48C168.32 64.072 168.16 64.776 168.16 65.592C168.16 66.392 168.32 67.096 168.64 67.704C168.976 68.296 169.416 68.76 169.96 69.096C170.52 69.432 171.136 69.6 171.808 69.6C172.48 69.6 173.088 69.432 173.632 69.096C174.192 68.76 174.632 68.296 174.952 67.704C175.288 67.096 175.456 66.392 175.456 65.592ZM182.297 72C181.881 72 181.537 71.864 181.265 71.592C180.993 71.304 180.857 70.952 180.857 70.536V60.624C180.857 60.208 180.993 59.864 181.265 59.592C181.537 59.304 181.881 59.16 182.297 59.16C182.713 59.16 183.057 59.304 183.329 59.592C183.601 59.864 183.737 60.208 183.737 60.624V62.88L183.569 61.272C183.745 60.888 183.969 60.552 184.241 60.264C184.529 59.96 184.849 59.712 185.201 59.52C185.553 59.312 185.929 59.16 186.329 59.064C186.729 58.968 187.129 58.92 187.529 58.92C188.009 58.92 188.409 59.056 188.729 59.328C189.065 59.6 189.233 59.92 189.233 60.288C189.233 60.816 189.097 61.2 188.825 61.44C188.553 61.664 188.257 61.776 187.937 61.776C187.633 61.776 187.353 61.72 187.097 61.608C186.857 61.496 186.577 61.44 186.257 61.44C185.969 61.44 185.673 61.512 185.369 61.656C185.081 61.784 184.809 61.992 184.553 62.28C184.313 62.568 184.113 62.928 183.953 63.36C183.809 63.776 183.737 64.272 183.737 64.848V70.536C183.737 70.952 183.601 71.304 183.329 71.592C183.057 71.864 182.713 72 182.297 72Z" fill="white"/>
</svg>
