<svg width="192" height="64" viewBox="0 0 192 64" fill="none" xmlns="http://www.w3.org/2000/svg">
<path d="M14.016 19.592C14.016 20.904 13.72 22.064 13.128 23.072C12.552 24.064 11.768 24.84 10.776 25.4C9.8 25.96 8.704 26.24 7.488 26.24C6.272 26.24 5.168 25.96 4.176 25.4C3.2 24.84 2.416 24.064 1.824 23.072C1.248 22.064 0.96 20.904 0.96 19.592C0.96 18.28 1.248 17.128 1.824 16.136C2.416 15.128 3.2 14.344 4.176 13.784C5.168 13.208 6.272 12.92 7.488 12.92C8.704 12.92 9.8 13.208 10.776 13.784C11.768 14.344 12.552 15.128 13.128 16.136C13.72 17.128 14.016 18.28 14.016 19.592ZM11.136 19.592C11.136 18.776 10.968 18.072 10.632 17.48C10.312 16.872 9.872 16.4 9.312 16.064C8.768 15.728 8.16 15.56 7.488 15.56C6.816 15.56 6.2 15.728 5.64 16.064C5.096 16.4 4.656 16.872 4.32 17.48C4 18.072 3.84 18.776 3.84 19.592C3.84 20.392 4 21.096 4.32 21.704C4.656 22.296 5.096 22.76 5.64 23.096C6.2 23.432 6.816 23.6 7.488 23.6C8.16 23.6 8.768 23.432 9.312 23.096C9.872 22.76 10.312 22.296 10.632 21.704C10.968 21.096 11.136 20.392 11.136 19.592ZM15.7926 24.008C15.6326 23.784 15.5606 23.496 15.5766 23.144C15.5926 22.792 15.8006 22.488 16.2006 22.232C16.4566 22.072 16.7286 22.008 17.0166 22.04C17.3046 22.056 17.5846 22.2 17.8566 22.472C18.3206 22.936 18.8086 23.296 19.3206 23.552C19.8326 23.808 20.4726 23.936 21.2406 23.936C21.4806 23.92 21.7446 23.888 22.0326 23.84C22.3206 23.776 22.5686 23.648 22.7766 23.456C23.0006 23.248 23.1126 22.936 23.1126 22.52C23.1126 22.168 22.9926 21.888 22.7526 21.68C22.5126 21.472 22.1926 21.296 21.7926 21.152C21.4086 21.008 20.9766 20.872 20.4966 20.744C20.0006 20.6 19.4886 20.44 18.9606 20.264C18.4486 20.088 17.9766 19.864 17.5446 19.592C17.1126 19.304 16.7606 18.928 16.4886 18.464C16.2166 18 16.0806 17.416 16.0806 16.712C16.0806 15.912 16.3046 15.232 16.7526 14.672C17.2006 14.112 17.7766 13.68 18.4806 13.376C19.2006 13.072 19.9526 12.92 20.7366 12.92C21.2326 12.92 21.7526 12.984 22.2966 13.112C22.8406 13.224 23.3606 13.416 23.8566 13.688C24.3526 13.944 24.7686 14.288 25.1046 14.72C25.2806 14.96 25.3846 15.248 25.4166 15.584C25.4486 15.92 25.2966 16.224 24.9606 16.496C24.7206 16.688 24.4406 16.776 24.1206 16.76C23.8006 16.728 23.5366 16.616 23.3286 16.424C23.0566 16.072 22.6886 15.792 22.2246 15.584C21.7766 15.376 21.2566 15.272 20.6646 15.272C20.4246 15.272 20.1606 15.304 19.8726 15.368C19.6006 15.416 19.3606 15.536 19.1526 15.728C18.9446 15.904 18.8406 16.192 18.8406 16.592C18.8406 16.96 18.9606 17.256 19.2006 17.48C19.4406 17.688 19.7606 17.864 20.1606 18.008C20.5766 18.136 21.0166 18.264 21.4806 18.392C21.9606 18.52 22.4486 18.672 22.9446 18.848C23.4406 19.024 23.8966 19.256 24.3126 19.544C24.7286 19.832 25.0646 20.208 25.3206 20.672C25.5766 21.12 25.7046 21.696 25.7046 22.4C25.7046 23.216 25.4646 23.912 24.9846 24.488C24.5046 25.064 23.9046 25.504 23.1846 25.808C22.4646 26.096 21.7286 26.24 20.9766 26.24C20.0326 26.24 19.0886 26.08 18.1446 25.76C17.2006 25.424 16.4166 24.84 15.7926 24.008ZM37.6427 13.16C38.0587 13.16 38.4027 13.304 38.6747 13.592C38.9467 13.864 39.0827 14.208 39.0827 14.624V20.72C39.0827 22.416 38.6107 23.76 37.6667 24.752C36.7227 25.744 35.3627 26.24 33.5867 26.24C31.8107 26.24 30.4507 25.744 29.5067 24.752C28.5787 23.76 28.1147 22.416 28.1147 20.72V14.624C28.1147 14.208 28.2507 13.864 28.5227 13.592C28.7947 13.304 29.1387 13.16 29.5547 13.16C29.9707 13.16 30.3147 13.304 30.5867 13.592C30.8587 13.864 30.9947 14.208 30.9947 14.624V20.72C30.9947 21.696 31.2107 22.424 31.6427 22.904C32.0747 23.368 32.7227 23.6 33.5867 23.6C34.4667 23.6 35.1227 23.368 35.5547 22.904C35.9867 22.424 36.2027 21.696 36.2027 20.72V14.624C36.2027 14.208 36.3387 13.864 36.6107 13.592C36.8827 13.304 37.2267 13.16 37.6427 13.16ZM43.8566 20.696C43.3126 20.696 43.0166 20.392 42.9686 19.784L42.2726 10.952C42.2406 10.456 42.3686 10.04 42.6566 9.704C42.9606 9.368 43.3526 9.2 43.8326 9.2C44.3126 9.2 44.7046 9.368 45.0086 9.704C45.3126 10.04 45.4406 10.456 45.3926 10.952L44.7206 19.784C44.6726 20.392 44.3846 20.696 43.8566 20.696ZM43.6886 26C43.2246 26 42.8646 25.88 42.6086 25.64C42.3686 25.384 42.2486 25.024 42.2486 24.56V24.152C42.2486 23.688 42.3686 23.336 42.6086 23.096C42.8646 22.84 43.2246 22.712 43.6886 22.712H44.0006C44.4646 22.712 44.8166 22.84 45.0566 23.096C45.3126 23.336 45.4406 23.688 45.4406 24.152V24.56C45.4406 25.024 45.3126 25.384 45.0566 25.64C44.8166 25.88 44.4646 26 44.0006 26H43.6886ZM54.5816 24.008C54.4216 23.784 54.3496 23.496 54.3656 23.144C54.3816 22.792 54.5896 22.488 54.9896 22.232C55.2456 22.072 55.5176 22.008 55.8056 22.04C56.0936 22.056 56.3736 22.2 56.6456 22.472C57.1096 22.936 57.5976 23.296 58.1096 23.552C58.6216 23.808 59.2616 23.936 60.0296 23.936C60.2696 23.92 60.5336 23.888 60.8216 23.84C61.1096 23.776 61.3576 23.648 61.5656 23.456C61.7896 23.248 61.9016 22.936 61.9016 22.52C61.9016 22.168 61.7816 21.888 61.5416 21.68C61.3016 21.472 60.9816 21.296 60.5816 21.152C60.1976 21.008 59.7656 20.872 59.2856 20.744C58.7896 20.6 58.2776 20.44 57.7496 20.264C57.2376 20.088 56.7656 19.864 56.3336 19.592C55.9016 19.304 55.5496 18.928 55.2776 18.464C55.0056 18 54.8696 17.416 54.8696 16.712C54.8696 15.912 55.0936 15.232 55.5416 14.672C55.9896 14.112 56.5656 13.68 57.2696 13.376C57.9896 13.072 58.7416 12.92 59.5256 12.92C60.0216 12.92 60.5416 12.984 61.0856 13.112C61.6296 13.224 62.1496 13.416 62.6456 13.688C63.1416 13.944 63.5576 14.288 63.8936 14.72C64.0696 14.96 64.1736 15.248 64.2056 15.584C64.2376 15.92 64.0856 16.224 63.7496 16.496C63.5096 16.688 63.2296 16.776 62.9096 16.76C62.5896 16.728 62.3256 16.616 62.1176 16.424C61.8456 16.072 61.4776 15.792 61.0136 15.584C60.5656 15.376 60.0456 15.272 59.4536 15.272C59.2136 15.272 58.9496 15.304 58.6616 15.368C58.3896 15.416 58.1496 15.536 57.9416 15.728C57.7336 15.904 57.6296 16.192 57.6296 16.592C57.6296 16.96 57.7496 17.256 57.9896 17.48C58.2296 17.688 58.5496 17.864 58.9496 18.008C59.3656 18.136 59.8056 18.264 60.2696 18.392C60.7496 18.52 61.2376 18.672 61.7336 18.848C62.2296 19.024 62.6856 19.256 63.1016 19.544C63.5176 19.832 63.8536 20.208 64.1096 20.672C64.3656 21.12 64.4936 21.696 64.4936 22.4C64.4936 23.216 64.2536 23.912 63.7736 24.488C63.2936 25.064 62.6936 25.504 61.9736 25.808C61.2536 26.096 60.5176 26.24 59.7656 26.24C58.8216 26.24 57.8776 26.08 56.9336 25.76C55.9896 25.424 55.2056 24.84 54.5816 24.008ZM72.6158 12.92C73.5278 12.92 74.3198 13.016 74.9918 13.208C75.6798 13.4 76.2078 13.672 76.5758 14.024C76.9598 14.36 77.1518 14.768 77.1518 15.248C77.1518 15.568 77.0558 15.872 76.8638 16.16C76.6718 16.432 76.3918 16.568 76.0238 16.568C75.7678 16.568 75.5518 16.536 75.3758 16.472C75.2158 16.392 75.0718 16.296 74.9438 16.184C74.8158 16.072 74.6638 15.968 74.4878 15.872C74.3278 15.776 74.0798 15.704 73.7438 15.656C73.4238 15.592 73.1838 15.56 73.0238 15.56C72.2078 15.56 71.5118 15.736 70.9358 16.088C70.3758 16.44 69.9438 16.92 69.6398 17.528C69.3358 18.12 69.1838 18.808 69.1838 19.592C69.1838 20.36 69.3358 21.048 69.6398 21.656C69.9598 22.248 70.3918 22.72 70.9358 23.072C71.4958 23.424 72.1358 23.6 72.8558 23.6C73.2558 23.6 73.5998 23.576 73.8878 23.528C74.1758 23.48 74.4158 23.408 74.6078 23.312C74.8318 23.184 75.0318 23.048 75.2078 22.904C75.3838 22.76 75.6478 22.688 75.9998 22.688C76.4158 22.688 76.7358 22.824 76.9598 23.096C77.1838 23.352 77.2958 23.672 77.2958 24.056C77.2958 24.456 77.0718 24.824 76.6238 25.16C76.1758 25.48 75.5838 25.744 74.8478 25.952C74.1278 26.144 73.3438 26.24 72.4958 26.24C71.2318 26.24 70.1358 25.952 69.2078 25.376C68.2798 24.784 67.5598 23.984 67.0478 22.976C66.5518 21.968 66.3038 20.84 66.3038 19.592C66.3038 18.28 66.5678 17.128 67.0958 16.136C67.6398 15.128 68.3838 14.344 69.3278 13.784C70.2878 13.208 71.3838 12.92 72.6158 12.92ZM91.8285 19.592C91.8285 20.904 91.5325 22.064 90.9405 23.072C90.3645 24.064 89.5805 24.84 88.5885 25.4C87.6125 25.96 86.5165 26.24 85.3005 26.24C84.0845 26.24 82.9805 25.96 81.9885 25.4C81.0125 24.84 80.2285 24.064 79.6365 23.072C79.0605 22.064 78.7725 20.904 78.7725 19.592C78.7725 18.28 79.0605 17.128 79.6365 16.136C80.2285 15.128 81.0125 14.344 81.9885 13.784C82.9805 13.208 84.0845 12.92 85.3005 12.92C86.5165 12.92 87.6125 13.208 88.5885 13.784C89.5805 14.344 90.3645 15.128 90.9405 16.136C91.5325 17.128 91.8285 18.28 91.8285 19.592ZM88.9485 19.592C88.9485 18.776 88.7805 18.072 88.4445 17.48C88.1245 16.872 87.6845 16.4 87.1245 16.064C86.5805 15.728 85.9725 15.56 85.3005 15.56C84.6285 15.56 84.0125 15.728 83.4525 16.064C82.9085 16.4 82.4685 16.872 82.1325 17.48C81.8125 18.072 81.6525 18.776 81.6525 19.592C81.6525 20.392 81.8125 21.096 82.1325 21.704C82.4685 22.296 82.9085 22.76 83.4525 23.096C84.0125 23.432 84.6285 23.6 85.3005 23.6C85.9725 23.6 86.5805 23.432 87.1245 23.096C87.6845 22.76 88.1245 22.296 88.4445 21.704C88.7805 21.096 88.9485 20.392 88.9485 19.592ZM95.7891 26C95.3731 26 95.0291 25.864 94.7571 25.592C94.4851 25.304 94.3491 24.952 94.3491 24.536V14.624C94.3491 14.208 94.4851 13.864 94.7571 13.592C95.0291 13.304 95.3731 13.16 95.7891 13.16C96.2051 13.16 96.5491 13.304 96.8211 13.592C97.0931 13.864 97.2291 14.208 97.2291 14.624V16.88L97.0611 15.272C97.2371 14.888 97.4611 14.552 97.7331 14.264C98.0211 13.96 98.3411 13.712 98.6931 13.52C99.0451 13.312 99.4211 13.16 99.8211 13.064C100.221 12.968 100.621 12.92 101.021 12.92C101.501 12.92 101.901 13.056 102.221 13.328C102.557 13.6 102.725 13.92 102.725 14.288C102.725 14.816 102.589 15.2 102.317 15.44C102.045 15.664 101.749 15.776 101.429 15.776C101.125 15.776 100.845 15.72 100.589 15.608C100.349 15.496 100.069 15.44 99.7491 15.44C99.4611 15.44 99.1651 15.512 98.8611 15.656C98.5731 15.784 98.3011 15.992 98.0451 16.28C97.8051 16.568 97.6051 16.928 97.4451 17.36C97.3011 17.776 97.2291 18.272 97.2291 18.848V24.536C97.2291 24.952 97.0931 25.304 96.8211 25.592C96.5491 25.864 96.2051 26 95.7891 26ZM110.264 26.24C108.904 26.24 107.72 25.96 106.712 25.4C105.72 24.824 104.952 24.048 104.408 23.072C103.88 22.096 103.616 20.992 103.616 19.76C103.616 18.32 103.904 17.096 104.48 16.088C105.072 15.064 105.84 14.28 106.784 13.736C107.728 13.192 108.728 12.92 109.784 12.92C110.6 12.92 111.368 13.088 112.088 13.424C112.824 13.76 113.472 14.224 114.032 14.816C114.592 15.392 115.032 16.064 115.352 16.832C115.688 17.6 115.856 18.416 115.856 19.28C115.84 19.664 115.688 19.976 115.4 20.216C115.112 20.456 114.776 20.576 114.392 20.576H105.224L104.504 18.176H113.312L112.784 18.656V18.008C112.752 17.544 112.584 17.128 112.28 16.76C111.992 16.392 111.624 16.104 111.176 15.896C110.744 15.672 110.28 15.56 109.784 15.56C109.304 15.56 108.856 15.624 108.44 15.752C108.024 15.88 107.664 16.096 107.36 16.4C107.056 16.704 106.816 17.112 106.64 17.624C106.464 18.136 106.376 18.784 106.376 19.568C106.376 20.432 106.552 21.168 106.904 21.776C107.272 22.368 107.736 22.824 108.296 23.144C108.872 23.448 109.48 23.6 110.12 23.6C110.712 23.6 111.184 23.552 111.536 23.456C111.888 23.36 112.168 23.248 112.376 23.12C112.6 22.976 112.8 22.856 112.976 22.76C113.264 22.616 113.536 22.544 113.792 22.544C114.144 22.544 114.432 22.664 114.656 22.904C114.896 23.144 115.016 23.424 115.016 23.744C115.016 24.176 114.792 24.568 114.344 24.92C113.928 25.272 113.344 25.584 112.592 25.856C111.84 26.112 111.064 26.24 110.264 26.24ZM7.272 42.92C8.184 42.92 8.976 43.016 9.648 43.208C10.336 43.4 10.864 43.672 11.232 44.024C11.616 44.36 11.808 44.768 11.808 45.248C11.808 45.568 11.712 45.872 11.52 46.16C11.328 46.432 11.048 46.568 10.68 46.568C10.424 46.568 10.208 46.536 10.032 46.472C9.872 46.392 9.728 46.296 9.6 46.184C9.472 46.072 9.32 45.968 9.144 45.872C8.984 45.776 8.736 45.704 8.4 45.656C8.08 45.592 7.84 45.56 7.68 45.56C6.864 45.56 6.168 45.736 5.592 46.088C5.032 46.44 4.6 46.92 4.296 47.528C3.992 48.12 3.84 48.808 3.84 49.592C3.84 50.36 3.992 51.048 4.296 51.656C4.616 52.248 5.048 52.72 5.592 53.072C6.152 53.424 6.792 53.6 7.512 53.6C7.912 53.6 8.256 53.576 8.544 53.528C8.832 53.48 9.072 53.408 9.264 53.312C9.488 53.184 9.688 53.048 9.864 52.904C10.04 52.76 10.304 52.688 10.656 52.688C11.072 52.688 11.392 52.824 11.616 53.096C11.84 53.352 11.952 53.672 11.952 54.056C11.952 54.456 11.728 54.824 11.28 55.16C10.832 55.48 10.24 55.744 9.504 55.952C8.784 56.144 8 56.24 7.152 56.24C5.888 56.24 4.792 55.952 3.864 55.376C2.936 54.784 2.216 53.984 1.704 52.976C1.208 51.968 0.96 50.84 0.96 49.592C0.96 48.28 1.224 47.128 1.752 46.136C2.296 45.128 3.04 44.344 3.984 43.784C4.944 43.208 6.04 42.92 7.272 42.92ZM26.4848 49.592C26.4848 50.904 26.1888 52.064 25.5968 53.072C25.0208 54.064 24.2368 54.84 23.2448 55.4C22.2688 55.96 21.1728 56.24 19.9568 56.24C18.7408 56.24 17.6368 55.96 16.6448 55.4C15.6688 54.84 14.8848 54.064 14.2928 53.072C13.7168 52.064 13.4288 50.904 13.4288 49.592C13.4288 48.28 13.7168 47.128 14.2928 46.136C14.8848 45.128 15.6688 44.344 16.6448 43.784C17.6368 43.208 18.7408 42.92 19.9568 42.92C21.1728 42.92 22.2688 43.208 23.2448 43.784C24.2368 44.344 25.0208 45.128 25.5968 46.136C26.1888 47.128 26.4848 48.28 26.4848 49.592ZM23.6048 49.592C23.6048 48.776 23.4368 48.072 23.1008 47.48C22.7808 46.872 22.3408 46.4 21.7808 46.064C21.2368 45.728 20.6288 45.56 19.9568 45.56C19.2848 45.56 18.6688 45.728 18.1088 46.064C17.5648 46.4 17.1248 46.872 16.7888 47.48C16.4688 48.072 16.3088 48.776 16.3088 49.592C16.3088 50.392 16.4688 51.096 16.7888 51.704C17.1248 52.296 17.5648 52.76 18.1088 53.096C18.6688 53.432 19.2848 53.6 19.9568 53.6C20.6288 53.6 21.2368 53.432 21.7808 53.096C22.3408 52.76 22.7808 52.296 23.1008 51.704C23.4368 51.096 23.6048 50.392 23.6048 49.592ZM29.4641 43.16C29.7681 43.16 30.0481 43.24 30.3041 43.4C30.5601 43.544 30.7521 43.768 30.8801 44.072L34.4081 52.136L33.8801 52.376L37.4801 44.096C37.7521 43.456 38.1761 43.152 38.7521 43.184C39.1521 43.184 39.4721 43.312 39.7121 43.568C39.9681 43.808 40.0961 44.112 40.0961 44.48C40.0961 44.592 40.0721 44.712 40.0241 44.84C39.9921 44.968 39.9521 45.088 39.9041 45.2L35.4161 55.088C35.1601 55.664 34.7521 55.968 34.1921 56C33.8881 56.048 33.5921 55.992 33.3041 55.832C33.0321 55.672 32.8241 55.424 32.6801 55.088L28.2161 45.2C28.1841 45.12 28.1441 45.016 28.0961 44.888C28.0641 44.76 28.0481 44.608 28.0481 44.432C28.0481 44.144 28.1761 43.864 28.4321 43.592C28.6881 43.304 29.0321 43.16 29.4641 43.16ZM48.2955 56.24C46.9355 56.24 45.7515 55.96 44.7435 55.4C43.7515 54.824 42.9835 54.048 42.4395 53.072C41.9115 52.096 41.6475 50.992 41.6475 49.76C41.6475 48.32 41.9355 47.096 42.5115 46.088C43.1035 45.064 43.8715 44.28 44.8155 43.736C45.7595 43.192 46.7595 42.92 47.8155 42.92C48.6315 42.92 49.3995 43.088 50.1195 43.424C50.8555 43.76 51.5035 44.224 52.0635 44.816C52.6235 45.392 53.0635 46.064 53.3835 46.832C53.7195 47.6 53.8875 48.416 53.8875 49.28C53.8715 49.664 53.7195 49.976 53.4315 50.216C53.1435 50.456 52.8075 50.576 52.4235 50.576H43.2555L42.5355 48.176H51.3435L50.8155 48.656V48.008C50.7835 47.544 50.6155 47.128 50.3115 46.76C50.0235 46.392 49.6555 46.104 49.2075 45.896C48.7755 45.672 48.3115 45.56 47.8155 45.56C47.3355 45.56 46.8875 45.624 46.4715 45.752C46.0555 45.88 45.6955 46.096 45.3915 46.4C45.0875 46.704 44.8475 47.112 44.6715 47.624C44.4955 48.136 44.4075 48.784 44.4075 49.568C44.4075 50.432 44.5835 51.168 44.9355 51.776C45.3035 52.368 45.7675 52.824 46.3275 53.144C46.9035 53.448 47.5115 53.6 48.1515 53.6C48.7435 53.6 49.2155 53.552 49.5675 53.456C49.9195 53.36 50.1995 53.248 50.4075 53.12C50.6315 52.976 50.8315 52.856 51.0075 52.76C51.2955 52.616 51.5675 52.544 51.8235 52.544C52.1755 52.544 52.4635 52.664 52.6875 52.904C52.9275 53.144 53.0475 53.424 53.0475 53.744C53.0475 54.176 52.8235 54.568 52.3755 54.92C51.9595 55.272 51.3755 55.584 50.6235 55.856C49.8715 56.112 49.0955 56.24 48.2955 56.24ZM57.8438 56C57.4278 56 57.0838 55.864 56.8118 55.592C56.5398 55.304 56.4038 54.952 56.4038 54.536V44.624C56.4038 44.208 56.5398 43.864 56.8118 43.592C57.0838 43.304 57.4278 43.16 57.8438 43.16C58.2598 43.16 58.6038 43.304 58.8758 43.592C59.1478 43.864 59.2838 44.208 59.2838 44.624V46.88L59.1158 45.272C59.2918 44.888 59.5158 44.552 59.7878 44.264C60.0758 43.96 60.3958 43.712 60.7478 43.52C61.0998 43.312 61.4758 43.16 61.8758 43.064C62.2758 42.968 62.6758 42.92 63.0758 42.92C63.5558 42.92 63.9558 43.056 64.2758 43.328C64.6118 43.6 64.7798 43.92 64.7798 44.288C64.7798 44.816 64.6438 45.2 64.3718 45.44C64.0998 45.664 63.8038 45.776 63.4838 45.776C63.1798 45.776 62.8998 45.72 62.6438 45.608C62.4038 45.496 62.1238 45.44 61.8038 45.44C61.5158 45.44 61.2198 45.512 60.9158 45.656C60.6278 45.784 60.3558 45.992 60.0998 46.28C59.8598 46.568 59.6598 46.928 59.4998 47.36C59.3558 47.776 59.2838 48.272 59.2838 48.848V54.536C59.2838 54.952 59.1478 55.304 58.8758 55.592C58.6038 55.864 58.2598 56 57.8438 56ZM78.8646 42.92C79.5366 42.92 80.1526 43.024 80.7126 43.232C81.2726 43.44 81.7526 43.704 82.1526 44.024C82.5686 44.344 82.8886 44.672 83.1126 45.008C83.3526 45.328 83.4726 45.6 83.4726 45.824L82.8486 46.136V44.384C82.8486 43.968 82.9846 43.624 83.2566 43.352C83.5286 43.064 83.8726 42.92 84.2886 42.92C84.7046 42.92 85.0486 43.056 85.3206 43.328C85.5926 43.6 85.7286 43.952 85.7286 44.384V55.064C85.7286 56.456 85.4246 57.568 84.8166 58.4C84.2246 59.248 83.4406 59.856 82.4646 60.224C81.4886 60.608 80.4406 60.8 79.3206 60.8C79.0006 60.8 78.5846 60.76 78.0726 60.68C77.5606 60.6 77.0726 60.504 76.6086 60.392C76.1446 60.28 75.7926 60.176 75.5526 60.08C75.0726 59.872 74.7366 59.608 74.5446 59.288C74.3686 58.984 74.3366 58.656 74.4486 58.304C74.5926 57.84 74.8246 57.52 75.1446 57.344C75.4646 57.184 75.8006 57.168 76.1526 57.296C76.3126 57.344 76.5766 57.44 76.9446 57.584C77.3126 57.728 77.7126 57.856 78.1446 57.968C78.5926 58.096 78.9846 58.16 79.3206 58.16C80.5206 58.16 81.4086 57.92 81.9846 57.44C82.5606 56.96 82.8486 56.296 82.8486 55.448V53.36L83.1366 53.576C83.1366 53.784 83.0246 54.04 82.8006 54.344C82.5926 54.632 82.2966 54.92 81.9126 55.208C81.5446 55.496 81.1046 55.744 80.5926 55.952C80.0806 56.144 79.5366 56.24 78.9606 56.24C77.8246 56.24 76.8006 55.96 75.8886 55.4C74.9766 54.824 74.2566 54.04 73.7286 53.048C73.2006 52.04 72.9366 50.888 72.9366 49.592C72.9366 48.28 73.2006 47.128 73.7286 46.136C74.2566 45.128 74.9686 44.344 75.8646 43.784C76.7606 43.208 77.7606 42.92 78.8646 42.92ZM79.3206 45.56C78.6006 45.56 77.9686 45.736 77.4246 46.088C76.8806 46.44 76.4566 46.92 76.1526 47.528C75.8486 48.136 75.6966 48.824 75.6966 49.592C75.6966 50.344 75.8486 51.024 76.1526 51.632C76.4566 52.24 76.8806 52.72 77.4246 53.072C77.9686 53.424 78.6006 53.6 79.3206 53.6C80.0566 53.6 80.6966 53.424 81.2406 53.072C81.7846 52.72 82.2086 52.24 82.5126 51.632C82.8166 51.024 82.9686 50.344 82.9686 49.592C82.9686 48.824 82.8166 48.136 82.5126 47.528C82.2086 46.92 81.7846 46.44 81.2406 46.088C80.6966 45.736 80.0566 45.56 79.3206 45.56ZM94.4205 56.24C93.0605 56.24 91.8765 55.96 90.8685 55.4C89.8765 54.824 89.1085 54.048 88.5645 53.072C88.0365 52.096 87.7725 50.992 87.7725 49.76C87.7725 48.32 88.0605 47.096 88.6365 46.088C89.2285 45.064 89.9965 44.28 90.9405 43.736C91.8845 43.192 92.8845 42.92 93.9405 42.92C94.7565 42.92 95.5245 43.088 96.2445 43.424C96.9805 43.76 97.6285 44.224 98.1885 44.816C98.7485 45.392 99.1885 46.064 99.5085 46.832C99.8445 47.6 100.013 48.416 100.013 49.28C99.9965 49.664 99.8445 49.976 99.5565 50.216C99.2685 50.456 98.9325 50.576 98.5485 50.576H89.3805L88.6605 48.176H97.4685L96.9405 48.656V48.008C96.9085 47.544 96.7405 47.128 96.4365 46.76C96.1485 46.392 95.7805 46.104 95.3325 45.896C94.9005 45.672 94.4365 45.56 93.9405 45.56C93.4605 45.56 93.0125 45.624 92.5965 45.752C92.1805 45.88 91.8205 46.096 91.5165 46.4C91.2125 46.704 90.9725 47.112 90.7965 47.624C90.6205 48.136 90.5325 48.784 90.5325 49.568C90.5325 50.432 90.7085 51.168 91.0605 51.776C91.4285 52.368 91.8925 52.824 92.4525 53.144C93.0285 53.448 93.6365 53.6 94.2765 53.6C94.8685 53.6 95.3405 53.552 95.6925 53.456C96.0445 53.36 96.3245 53.248 96.5325 53.12C96.7565 52.976 96.9565 52.856 97.1325 52.76C97.4205 52.616 97.6925 52.544 97.9485 52.544C98.3005 52.544 98.5885 52.664 98.8125 52.904C99.0525 53.144 99.1725 53.424 99.1725 53.744C99.1725 54.176 98.9485 54.568 98.5005 54.92C98.0845 55.272 97.5005 55.584 96.7485 55.856C95.9965 56.112 95.2205 56.24 94.4205 56.24ZM109.393 42.92C110.577 42.92 111.473 43.168 112.081 43.664C112.705 44.16 113.129 44.824 113.353 45.656C113.593 46.472 113.713 47.384 113.713 48.392V54.536C113.713 54.952 113.577 55.304 113.305 55.592C113.033 55.864 112.689 56 112.273 56C111.857 56 111.513 55.864 111.241 55.592C110.969 55.304 110.833 54.952 110.833 54.536V48.392C110.833 47.864 110.761 47.392 110.617 46.976C110.489 46.544 110.249 46.2 109.897 45.944C109.545 45.688 109.041 45.56 108.385 45.56C107.745 45.56 107.201 45.688 106.753 45.944C106.321 46.2 105.985 46.544 105.745 46.976C105.521 47.392 105.409 47.864 105.409 48.392V54.536C105.409 54.952 105.273 55.304 105.001 55.592C104.729 55.864 104.385 56 103.969 56C103.553 56 103.209 55.864 102.937 55.592C102.665 55.304 102.529 54.952 102.529 54.536V44.624C102.529 44.208 102.665 43.864 102.937 43.592C103.209 43.304 103.553 43.16 103.969 43.16C104.385 43.16 104.729 43.304 105.001 43.592C105.273 43.864 105.409 44.208 105.409 44.624V45.656L105.049 45.584C105.193 45.312 105.401 45.024 105.673 44.72C105.945 44.4 106.265 44.104 106.633 43.832C107.001 43.56 107.417 43.344 107.881 43.184C108.345 43.008 108.849 42.92 109.393 42.92ZM122.874 56.24C121.514 56.24 120.33 55.96 119.322 55.4C118.33 54.824 117.562 54.048 117.018 53.072C116.49 52.096 116.226 50.992 116.226 49.76C116.226 48.32 116.514 47.096 117.09 46.088C117.682 45.064 118.45 44.28 119.394 43.736C120.338 43.192 121.338 42.92 122.394 42.92C123.21 42.92 123.978 43.088 124.698 43.424C125.434 43.76 126.082 44.224 126.642 44.816C127.202 45.392 127.642 46.064 127.962 46.832C128.298 47.6 128.466 48.416 128.466 49.28C128.45 49.664 128.298 49.976 128.01 50.216C127.722 50.456 127.386 50.576 127.002 50.576H117.834L117.114 48.176H125.922L125.394 48.656V48.008C125.362 47.544 125.194 47.128 124.89 46.76C124.602 46.392 124.234 46.104 123.786 45.896C123.354 45.672 122.89 45.56 122.394 45.56C121.914 45.56 121.466 45.624 121.05 45.752C120.634 45.88 120.274 46.096 119.97 46.4C119.666 46.704 119.426 47.112 119.25 47.624C119.074 48.136 118.986 48.784 118.986 49.568C118.986 50.432 119.162 51.168 119.514 51.776C119.882 52.368 120.346 52.824 120.906 53.144C121.482 53.448 122.09 53.6 122.73 53.6C123.322 53.6 123.794 53.552 124.146 53.456C124.498 53.36 124.778 53.248 124.986 53.12C125.21 52.976 125.41 52.856 125.586 52.76C125.874 52.616 126.146 52.544 126.402 52.544C126.754 52.544 127.042 52.664 127.266 52.904C127.506 53.144 127.626 53.424 127.626 53.744C127.626 54.176 127.402 54.568 126.954 54.92C126.538 55.272 125.954 55.584 125.202 55.856C124.45 56.112 123.674 56.24 122.874 56.24ZM132.422 56C132.006 56 131.662 55.864 131.39 55.592C131.118 55.304 130.982 54.952 130.982 54.536V44.624C130.982 44.208 131.118 43.864 131.39 43.592C131.662 43.304 132.006 43.16 132.422 43.16C132.838 43.16 133.182 43.304 133.454 43.592C133.726 43.864 133.862 44.208 133.862 44.624V46.88L133.694 45.272C133.87 44.888 134.094 44.552 134.366 44.264C134.654 43.96 134.974 43.712 135.326 43.52C135.678 43.312 136.054 43.16 136.454 43.064C136.854 42.968 137.254 42.92 137.654 42.92C138.134 42.92 138.534 43.056 138.854 43.328C139.19 43.6 139.358 43.92 139.358 44.288C139.358 44.816 139.222 45.2 138.95 45.44C138.678 45.664 138.382 45.776 138.062 45.776C137.758 45.776 137.478 45.72 137.222 45.608C136.982 45.496 136.702 45.44 136.382 45.44C136.094 45.44 135.798 45.512 135.494 45.656C135.206 45.784 134.934 45.992 134.678 46.28C134.438 46.568 134.238 46.928 134.078 47.36C133.934 47.776 133.862 48.272 133.862 48.848V54.536C133.862 54.952 133.726 55.304 133.454 55.592C133.182 55.864 132.838 56 132.422 56ZM151.619 42.92C152.035 42.92 152.379 43.056 152.651 43.328C152.923 43.6 153.059 43.952 153.059 44.384V54.536C153.059 54.952 152.923 55.304 152.651 55.592C152.379 55.864 152.035 56 151.619 56C151.203 56 150.859 55.864 150.587 55.592C150.315 55.304 150.179 54.952 150.179 54.536V53.36L150.707 53.576C150.707 53.784 150.595 54.04 150.371 54.344C150.147 54.632 149.843 54.92 149.459 55.208C149.075 55.496 148.619 55.744 148.091 55.952C147.579 56.144 147.019 56.24 146.411 56.24C145.307 56.24 144.307 55.96 143.411 55.4C142.515 54.824 141.803 54.04 141.275 53.048C140.763 52.04 140.507 50.888 140.507 49.592C140.507 48.28 140.763 47.128 141.275 46.136C141.803 45.128 142.507 44.344 143.387 43.784C144.267 43.208 145.243 42.92 146.315 42.92C147.003 42.92 147.635 43.024 148.211 43.232C148.787 43.44 149.283 43.704 149.699 44.024C150.131 44.344 150.459 44.672 150.683 45.008C150.923 45.328 151.043 45.6 151.043 45.824L150.179 46.136V44.384C150.179 43.968 150.315 43.624 150.587 43.352C150.859 43.064 151.203 42.92 151.619 42.92ZM146.771 53.6C147.475 53.6 148.091 53.424 148.619 53.072C149.147 52.72 149.555 52.24 149.843 51.632C150.147 51.024 150.299 50.344 150.299 49.592C150.299 48.824 150.147 48.136 149.843 47.528C149.555 46.92 149.147 46.44 148.619 46.088C148.091 45.736 147.475 45.56 146.771 45.56C146.083 45.56 145.475 45.736 144.947 46.088C144.419 46.44 144.003 46.92 143.699 47.528C143.411 48.136 143.267 48.824 143.267 49.592C143.267 50.344 143.411 51.024 143.699 51.632C144.003 52.24 144.419 52.72 144.947 53.072C145.475 53.424 146.083 53.6 146.771 53.6ZM156.321 43.4H162.009C162.393 43.4 162.713 43.528 162.969 43.784C163.225 44.04 163.353 44.36 163.353 44.744C163.353 45.112 163.225 45.424 162.969 45.68C162.713 45.92 162.393 46.04 162.009 46.04H156.321C155.937 46.04 155.617 45.912 155.361 45.656C155.105 45.4 154.977 45.08 154.977 44.696C154.977 44.328 155.105 44.024 155.361 43.784C155.617 43.528 155.937 43.4 156.321 43.4ZM158.889 40.4C159.305 40.4 159.641 40.544 159.897 40.832C160.169 41.104 160.305 41.448 160.305 41.864V52.544C160.305 52.768 160.345 52.952 160.425 53.096C160.521 53.24 160.641 53.344 160.785 53.408C160.945 53.472 161.113 53.504 161.289 53.504C161.481 53.504 161.657 53.472 161.817 53.408C161.977 53.328 162.161 53.288 162.369 53.288C162.593 53.288 162.793 53.392 162.969 53.6C163.161 53.808 163.257 54.096 163.257 54.464C163.257 54.912 163.009 55.28 162.513 55.568C162.033 55.856 161.513 56 160.953 56C160.617 56 160.241 55.976 159.825 55.928C159.425 55.864 159.041 55.728 158.673 55.52C158.321 55.296 158.025 54.96 157.785 54.512C157.545 54.064 157.425 53.448 157.425 52.664V41.864C157.425 41.448 157.561 41.104 157.833 40.832C158.121 40.544 158.473 40.4 158.889 40.4ZM178.336 49.592C178.336 50.904 178.04 52.064 177.448 53.072C176.872 54.064 176.088 54.84 175.096 55.4C174.12 55.96 173.024 56.24 171.808 56.24C170.592 56.24 169.488 55.96 168.496 55.4C167.52 54.84 166.736 54.064 166.144 53.072C165.568 52.064 165.28 50.904 165.28 49.592C165.28 48.28 165.568 47.128 166.144 46.136C166.736 45.128 167.52 44.344 168.496 43.784C169.488 43.208 170.592 42.92 171.808 42.92C173.024 42.92 174.12 43.208 175.096 43.784C176.088 44.344 176.872 45.128 177.448 46.136C178.04 47.128 178.336 48.28 178.336 49.592ZM175.456 49.592C175.456 48.776 175.288 48.072 174.952 47.48C174.632 46.872 174.192 46.4 173.632 46.064C173.088 45.728 172.48 45.56 171.808 45.56C171.136 45.56 170.52 45.728 169.96 46.064C169.416 46.4 168.976 46.872 168.64 47.48C168.32 48.072 168.16 48.776 168.16 49.592C168.16 50.392 168.32 51.096 168.64 51.704C168.976 52.296 169.416 52.76 169.96 53.096C170.52 53.432 171.136 53.6 171.808 53.6C172.48 53.6 173.088 53.432 173.632 53.096C174.192 52.76 174.632 52.296 174.952 51.704C175.288 51.096 175.456 50.392 175.456 49.592ZM182.297 56C181.881 56 181.537 55.864 181.265 55.592C180.993 55.304 180.857 54.952 180.857 54.536V44.624C180.857 44.208 180.993 43.864 181.265 43.592C181.537 43.304 181.881 43.16 182.297 43.16C182.713 43.16 183.057 43.304 183.329 43.592C183.601 43.864 183.737 44.208 183.737 44.624V46.88L183.569 45.272C183.745 44.888 183.969 44.552 184.241 44.264C184.529 43.96 184.849 43.712 185.201 43.52C185.553 43.312 185.929 43.16 186.329 43.064C186.729 42.968 187.129 42.92 187.529 42.92C188.009 42.92 188.409 43.056 188.729 43.328C189.065 43.6 189.233 43.92 189.233 44.288C189.233 44.816 189.097 45.2 188.825 45.44C188.553 45.664 188.257 45.776 187.937 45.776C187.633 45.776 187.353 45.72 187.097 45.608C186.857 45.496 186.577 45.44 186.257 45.44C185.969 45.44 185.673 45.512 185.369 45.656C185.081 45.784 184.809 45.992 184.553 46.28C184.313 46.568 184.113 46.928 183.953 47.36C183.809 47.776 183.737 48.272 183.737 48.848V54.536C183.737 54.952 183.601 55.304 183.329 55.592C183.057 55.864 182.713 56 182.297 56Z" fill="white"/>
</svg>
